#!OML:ASF F:\VICON\USERDATA\INSTALL\rory3\rory3.ASF
:FULLY-SPECIFIED
:DEGREES
54
root 0.7265205935268337 17.705605779154304 21.685779003414297 -1.9644511154952267 -3.6568877908422186 -5.345584452143868
lfemur -25.616355763262895 -3.591298617029522 -14.14859959900423
ltibia 22.800079700349187
lfoot -2.2873879494927634 -1.7562352589202748
ltoes -4.21879256454355
rfemur 12.97899814520524 5.211338735007144 30.90314085698897
rtibia 40.71188889655054
rfoot -2.3949265085152485 -0.1656848542572087
rtoes -3.06388949135561
lowerback 9.145653647972484 2.475100950099439 5.04753274486643
upperback 0.09963589382654736 3.9307472300467032 1.3375333971884733
thorax -4.822042240242337 1.8240003636294548 -1.9482438521310086
lowerneck -16.637129123137292 -3.5250107512875477 -1.4260630812952104
upperneck 20.585706002063375 -4.755146252144089 1.1404800146001453
head 9.291372209533044 -2.225175470355678 0.018250670937983215
lclavicle -5.585059591794151e-16 -4.984232987039118e-16
lhumerus -38.87886978828546 11.31791169127904 79.53024048496225
lradius 17.033332697704346
lwrist 0.2743454901896101
lhand -27.674478553201478 21.7512674928938
lfingers 7.125020000000058
lthumb -1.0711933433257588 51.716265176406736
rclavicle -5.585059591794151e-16 -4.984232987039118e-16
rhumerus -21.28636883819914 -13.624931957048735 -80.64229039388323
rradius 32.283993533574346
rwrist -0.5355682470768173
rhand -17.788823630947483 30.55243182198601
rfingers 7.125020000000058
rthumb 8.474438657760576 -5.858420387082245
55
root 0.7681264583340569 17.77328312420413 23.142305499041868 -2.7684426674617484 -3.5011628827179937 -3.827555066668437
lfemur -23.289090469789535 -2.9384973278447006 -16.63703954724903
ltibia 27.284288678804373
lfoot -2.5320210863930264 -3.0548312490296032
ltoes -2.6008876970985444
rfemur 9.561457271937565 3.9413037755240428 28.38675140356893
rtibia 52.80473567421417
rfoot 9.342397957120202 0.9124897399610186
rtoes 4.488064448860247
lowerback 9.338182814846522 2.4956506982685065 3.9504748768279265
upperback 0.09762327338469845 3.830408624606969 1.0058808577681366
thorax -4.939661020331396 1.7926714131469823 -1.5667673563659137
lowerneck -16.392054426121813 -3.5019652875654503 -1.4646280251930244
upperneck 20.990946229394332 -4.733780721833299 1.2407538773052926
head 9.388693162396617 -2.2123232484767357 0.05989737349832536
lclavicle -1.4346635011791894e-16 -1.7705693323376096e-16
lhumerus -38.81369852673425 12.01052807731334 79.21587314421681
lradius 17.261141558476844
lwrist 0.816376828191423
lhand -27.31959658294704 22.752049704959976
lfingers 7.125020000000059
lthumb -0.7284590771191786 52.711518877653575
rclavicle -1.4346635011791894e-16 -1.7705693323376096e-16
rhumerus -22.76302158350783 -15.292692321733545 -79.84741351671951
rradius 31.84223061807076
rwrist 0.8863714469615491
rhand -17.632113083440668 30.61661388703144
rfingers 7.125020000000059
rthumb 8.62569447789512 -6.053235344324826
56
root 0.7698196475822037 17.83158932335155 23.357656563218406 -3.600355103832152 -3.7973047358299366 -2.4746712384733875
lfemur -21.032332373343912 -2.8213261113548658 -19.252073039014746
ltibia 28.722105344030766
lfoot -4.522525448579946 -3.095087876847677
ltoes -1.2369293510946378
rfemur 3.3820828160410716 2.442573986764984 25.61731430699739
rtibia 64.71020230901945
rfoot 17.212065479207865 -0.17883333781675326
rtoes 12.006013121062566
lowerback 9.576937915585113 2.3990845949159243 2.594252749883684
upperback 0.10896411719115157 3.5499158776403252 0.6752925064272202
thorax -5.193456898522326 1.6817866545131976 -1.2060329218518122
lowerneck -16.381752906396592 -3.3863600052065426 -1.5165838910944571
upperneck 21.0104407358102 -4.5771197916331525 1.1817500966681005
head 9.388918094162982 -2.1358197466577864 0.0699889103541127
lclavicle -7.690010585147008e-16 -6.614102660367703e-16
lhumerus -38.92087726697866 11.606553194181695 78.97156813593277
lradius 16.167829545252737
lwrist 1.4338545605938648
lhand -27.736610158276914 22.43477370454616
lfingers 7.125020000000057
lthumb -1.1311593918132876 52.39070289882045
rclavicle -7.690010585147008e-16 -6.614102660367703e-16
rhumerus -24.63409199193261 -17.59682188273503 -79.62950791857666
rradius 29.23078307006145
rwrist 2.178332479831435
rhand -17.519408958351654 30.384924896801778
rfingers 7.125020000000057
rthumb 8.73449916847726 -6.71971245522469
57
root 0.7908995647519647 17.898092055593725 24.457946664916285 -4.119603810887891 -3.9384787983848786 -1.160188805840254
lfemur -17.43020893742471 -2.845877757442803 -21.19490332329006
ltibia 29.970357928872524
lfoot -6.502946733983133 -1.80590889445133
ltoes 0.35027094391387514
rfemur -2.9347417573362815 1.0719670920756728 23.683649972990718
rtibia 76.69798939122563
rfoot 19.457736830054728 -2.5983053942950196
rtoes 17.14490676826456
lowerback 10.050400166487456 2.2586808605587163 1.512417893125332
upperback 0.21938685353711906 3.2406708379232487 0.5078721028862514
thorax -5.327021214751623 1.5521729532576316 -0.641119761804524
lowerneck -16.328244206594718 -3.1187107731471224 -1.533597329290937
upperneck 21.073445662721692 -4.182360429718534 1.1390718550405863
head 9.392440610260111 -1.9593506137499375 0.10049789767341177
lclavicle -3.623860505531723e-16 -3.4656708833468856e-16
lhumerus -37.77658769569241 10.997381728710513 79.33953076323844
lradius 17.41115651992451
lwrist 2.868875802505851
lhand -28.40710662259393 21.954558565092384
lfingers 7.125020000000059
lthumb -1.778677419093534 51.910286113798925
rclavicle -3.623860505531723e-16 -3.4656708833468856e-16
rhumerus -25.47404105323604 -18.91216137586938 -78.9532919382779
rradius 28.481544269186486
rwrist 4.285873133480144
rhand -17.334492973781725 30.596204618683156
rfingers 7.125020000000059
rthumb 8.91302136964435 -7.008584147522417
